<svg width="21" height="23" viewBox="0 0 21 23" fill="none" xmlns="http://www.w3.org/2000/svg">
<path id="Vector" d="M10.4994 0C11.4938 0 12.4475 0.378593 13.1507 1.05249C13.8539 1.72639 14.2489 2.6404 14.2489 3.59344C14.2489 4.54647 13.8539 5.46048 13.1507 6.13438C12.4475 6.80828 11.4938 7.18687 10.4994 7.18687C9.50492 7.18687 8.5512 6.80828 7.84802 6.13438C7.14484 5.46048 6.7498 4.54647 6.7498 3.59344C6.7498 2.6404 7.14484 1.72639 7.84802 1.05249C8.5512 0.378593 9.50492 0 10.4994 0ZM20.4732 17.1946L17.5064 20.7521C16.7283 21.6819 15.3129 21.8346 14.3427 21.089C13.5178 20.4556 13.2787 19.3776 13.7099 18.4972L13.6724 18.4927C11.8492 18.2412 10.19 17.3653 8.99954 16.0312V14.3737C8.99954 13.5787 8.3293 12.9364 7.49971 12.9364C6.67012 12.9364 5.99989 13.5787 5.99989 14.3737V16.5298C5.99989 16.5657 5.99989 16.6017 6.00458 16.6376L10.7571 18.9149C11.868 19.4495 12.3179 20.7431 11.7648 21.8077C11.2118 22.8722 9.85725 23.3034 8.74644 22.7734L1.27544 19.1934C1.22389 19.171 1.17233 19.144 1.12077 19.1171C0.891113 18.9913 0.689574 18.8296 0.530218 18.6409C0.314618 18.3984 0.164636 18.1154 0.0802706 17.8145C-0.0743987 17.2754 -0.00878142 16.6825 0.305244 16.1705C0.333366 16.121 0.366175 16.0716 0.398983 16.0267L3.54393 11.5035C4.79534 9.70228 6.90447 8.62425 9.15889 8.62425H12.6835C14.8629 8.62425 16.9064 9.6349 18.1766 11.3328L20.5529 14.5175C20.656 14.6522 20.7404 14.7915 20.8107 14.9397C20.9466 15.2407 21.0122 15.5596 20.9981 15.874C20.9841 16.3501 20.8013 16.8173 20.4732 17.1946ZM14.9988 14.9128C14.9988 14.3886 14.7816 13.8859 14.3948 13.5152C14.0081 13.1446 13.4835 12.9364 12.9366 12.9364C12.3896 12.9364 11.8651 13.1446 11.4783 13.5152C11.0916 13.8859 10.8743 14.3886 10.8743 14.9128C10.8743 15.4369 11.0916 15.9396 11.4783 16.3103C11.8651 16.6809 12.3896 16.8891 12.9366 16.8891C13.4835 16.8891 14.0081 16.6809 14.3948 16.3103C14.7816 15.9396 14.9988 15.4369 14.9988 14.9128Z" fill="#F9F9F9"/>
</svg>
