<svg width="22" height="25" viewBox="0 0 22 25" fill="none" xmlns="http://www.w3.org/2000/svg">
<path id="Vector" d="M14.0625 6.64062V0H4.29688C3.64746 0 3.125 0.522461 3.125 1.17188V12.5H0.390625C0.175781 12.5 0 12.6758 0 12.8906V13.6719C0 13.8867 0.175781 14.0625 0.390625 14.0625H7.27051C7.41699 14.0625 7.55371 14.1455 7.62207 14.2773L8.59375 16.2207L11.3672 10.6689C11.5088 10.3809 11.9238 10.3809 12.0654 10.6689L13.7598 14.0625H17.1875C17.6172 14.0625 17.9688 14.4141 17.9688 14.8438C17.9688 15.2734 17.6172 15.625 17.1875 15.625H12.7979L11.7188 13.4668L8.94531 19.0186C8.80371 19.3066 8.38867 19.3066 8.24707 19.0186L6.54785 15.625H3.125V23.8281C3.125 24.4775 3.64746 25 4.29688 25H20.7031C21.3525 25 21.875 24.4775 21.875 23.8281V7.8125H15.2344C14.5898 7.8125 14.0625 7.28516 14.0625 6.64062ZM21.5332 5.12695L16.7529 0.341797C16.5332 0.12207 16.2354 0 15.9229 0H15.625V6.25H21.875V5.95215C21.875 5.64453 21.7529 5.34668 21.5332 5.12695Z" fill="#F9F9F9"/>
</svg>
